<svg width="1149" height="577" viewBox="0 0 1149 577" fill="none" xmlns="http://www.w3.org/2000/svg">
<path d="M0.399902 262.945V2.19385H55.2601C67.2809 2.19385 77.5343 4.02439 86.0058 7.68549C94.4773 11.3466 101.401 16.2281 106.805 22.3299C112.194 28.4317 116.065 35.4633 118.402 43.3812C120.739 51.3135 121.893 59.551 121.893 68.1081V77.624C121.893 84.7138 121.338 90.6848 120.242 95.5662C119.132 100.448 117.482 104.719 115.276 108.38C111.099 115.223 104.716 121.078 96.1278 125.959C104.964 130.114 111.464 136.216 115.641 144.265C119.819 152.328 121.907 163.311 121.907 177.229V191.873C121.907 214.828 116.328 232.407 105.154 244.611C93.9807 256.829 76.1176 262.916 51.5794 262.916H0.399902V262.945ZM37.952 37.352V109.136H54.895C67.4124 109.136 75.8254 106.027 80.1196 99.794C84.4138 93.5614 86.5609 84.4813 86.5609 72.5101C86.5609 60.5389 84.1655 51.9964 79.3747 46.1415C74.5839 40.2867 65.9372 37.352 53.4198 37.352H37.952ZM37.952 142.1V225.593H54.1501C61.7598 225.593 67.7045 224.489 72.0133 222.295C76.3074 220.102 79.5646 217.051 81.7701 213.143C83.9756 209.235 85.3194 204.6 85.816 199.225C86.298 193.864 86.5463 187.994 86.5463 181.646C86.5463 175.297 86.1811 169.326 85.4362 164.43C84.7059 159.548 83.2307 155.393 81.0252 151.979C78.5714 148.565 75.2558 146.066 71.0785 144.468C66.9012 142.884 61.3801 142.085 54.5152 142.085H37.952V142.1Z" fill="white"/>
<path d="M160.92 262.945V2.19385H272.846V37.352H198.472V113.886H263.279V149.044H198.472V225.579H272.846V262.931H160.92V262.945Z" fill="white"/>
<path d="M335.813 262.945V152.705L284.268 2.19385H324.026L354.216 105.838H354.947L385.137 2.19385H424.895L373.35 152.705V262.945H335.798H335.813Z" fill="white"/>
<path d="M445.154 63.7204C445.154 53.2311 446.994 43.9477 450.675 35.8845C454.355 27.8214 459.263 21.1094 465.397 15.7485C471.284 10.6201 477.973 6.71199 485.466 4.02428C492.944 1.33657 500.496 0 508.106 0C515.715 0 523.252 1.3511 530.745 4.02428C538.223 6.71199 545.044 10.6201 551.179 15.7485C557.065 21.1239 561.856 27.836 565.536 35.8845C569.217 43.9477 571.058 53.2166 571.058 63.7204V201.418C571.058 212.402 569.217 221.801 565.536 229.617C561.856 237.434 557.065 243.899 551.179 249.027C545.044 254.402 538.223 258.427 530.745 261.114C523.252 263.802 515.701 265.139 508.106 265.139C500.51 265.139 492.944 263.788 485.466 261.114C477.973 258.427 471.284 254.402 465.397 249.027C459.263 243.899 454.355 237.434 450.675 229.617C446.994 221.801 445.154 212.402 445.154 201.418V63.7204ZM482.72 201.418C482.72 210.455 485.232 217.109 490.272 221.38C495.296 225.651 501.255 227.787 508.135 227.787C515.014 227.787 520.959 225.651 525.998 221.38C531.022 217.109 533.549 210.455 533.549 201.418V63.7204C533.549 54.6839 531.022 48.0301 525.998 43.7588C520.959 39.4875 515.014 37.3519 508.135 37.3519C501.255 37.3519 495.311 39.4875 490.272 43.7588C485.232 48.0301 482.72 54.6839 482.72 63.7204V201.418Z" fill="white"/>
<path d="M606.419 262.945V2.19385H642.496L699.196 159.301H699.927V2.19385H737.479V262.945H702.132L644.701 106.201H643.971V262.945H606.419Z" fill="white"/>
<path d="M775.045 262.945V2.19385H830.636C852.238 2.19385 868.612 8.0487 879.785 19.7729C890.959 31.4971 896.538 48.1029 896.538 69.5755V191.525C896.538 215.947 890.579 233.947 878.675 245.54C866.771 257.134 849.638 262.931 827.306 262.931H775.016L775.045 262.945ZM812.597 37.352V227.787H829.906C840.451 227.787 847.944 225.172 852.37 219.913C856.781 214.668 859.001 206.431 859.001 195.186V69.5755C859.001 59.3186 856.912 51.3862 852.735 45.7638C848.557 40.1559 840.948 37.3375 829.906 37.3375H812.597V37.352Z" fill="white"/>
<path d="M0.399902 574.806V314.055H112.326V349.213H37.952V428.319H102.759V463.477H37.952V574.806H0.399902Z" fill="white"/>
<path d="M140.311 574.806V314.055H252.237V349.213H177.863V425.747H242.67V460.905H177.863V537.44H252.237V574.791H140.311V574.806Z" fill="white"/>
<path d="M263.279 574.806L321.82 314.055H353.121L411.662 574.806H374.11L363.068 518.771H311.888L300.846 574.806H263.294H263.279ZM356.057 483.627L337.653 389.136H336.923L318.519 483.627H356.071H356.057Z" fill="white"/>
<path d="M433.746 574.806V314.055H494.128C538.311 314.055 560.395 339.566 560.395 390.589C560.395 405.974 558 419.035 553.209 429.771C548.418 440.522 540.005 449.181 527.984 455.777L568.487 574.806H528.729L493.748 463.477H471.284V574.806H433.732H433.746ZM471.298 349.213V430.512H492.652C499.284 430.512 504.556 429.597 508.485 427.767C512.414 425.936 515.482 423.321 517.687 419.892C519.644 416.478 521.003 412.265 521.733 407.253C522.463 402.255 522.843 396.444 522.843 389.863C522.843 383.281 522.478 377.47 521.733 372.472C521.003 367.475 519.527 363.131 517.322 359.47C512.663 352.641 503.826 349.213 490.812 349.213H471.298Z" fill="white"/>
<path d="M594.281 574.806V314.055H631.833V537.454H706.207V574.806H594.281Z" fill="white"/>
<path d="M734.192 574.806V314.055H846.118V349.213H771.745V425.747H836.551V460.905H771.745V537.44H846.118V574.791H734.192V574.806Z" fill="white"/>
<path d="M995.596 389.136H958.044V380.71C958.044 372.168 956.014 364.773 951.968 358.555C947.922 352.322 941.101 349.213 931.534 349.213C926.378 349.213 922.201 350.187 919.017 352.148C915.818 354.109 913.247 356.535 911.29 359.47C909.318 362.652 907.975 366.24 907.244 370.279C906.514 374.303 906.134 378.516 906.134 382.918C906.134 388.047 906.324 392.318 906.689 395.732C907.054 399.161 907.975 402.197 909.45 404.885C910.925 407.573 913.072 409.897 915.891 411.844C918.71 413.805 922.581 415.752 927.488 417.699L956.204 429.045C964.544 432.227 971.306 435.946 976.448 440.217C981.604 444.489 985.649 449.443 988.6 455.051C991.302 460.906 993.142 467.559 994.121 475.012C995.1 482.465 995.596 490.95 995.596 500.466C995.596 511.449 994.486 521.648 992.281 531.047C990.075 540.447 986.511 548.438 981.604 555.033C976.448 561.876 969.7 567.252 961.36 571.145C953.005 575.053 942.825 577 930.804 577C921.719 577 913.247 575.402 905.404 572.235C897.546 569.068 890.798 564.666 885.16 559.058C879.507 553.45 875.038 546.912 871.722 539.459C868.407 532.021 866.756 523.9 866.756 515.11V501.192H904.308V512.916C904.308 519.759 906.339 525.919 910.385 531.411C914.43 536.902 921.251 539.648 930.818 539.648C937.201 539.648 942.167 538.733 945.731 536.902C949.28 535.072 952.041 532.457 954.013 529.028C955.97 525.614 957.138 521.517 957.518 516.766C957.883 512.001 958.073 506.698 958.073 500.829C958.073 494.001 957.825 488.378 957.343 483.976C956.846 479.589 955.868 476.044 954.393 473.356C952.669 470.668 950.405 468.475 947.586 466.76C944.767 465.061 941.013 463.23 936.354 461.269L909.479 450.285C893.281 443.69 882.414 434.973 876.893 424.106C871.372 413.239 868.611 399.626 868.611 383.267C868.611 373.504 869.955 364.221 872.657 355.431C875.359 346.642 879.405 339.073 884.809 332.724C889.965 326.375 896.523 321.319 904.513 317.527C912.488 313.75 921.996 311.847 933.053 311.847C942.372 311.847 950.916 313.561 958.643 316.975C966.369 320.389 973.059 324.908 978.712 330.53C990.002 342.254 995.655 355.678 995.655 370.816V389.122L995.596 389.136Z" fill="white"/>
<path d="M1148.77 389.136H1111.22V380.71C1111.22 372.168 1109.19 364.773 1105.14 358.555C1101.1 352.322 1094.27 349.213 1084.71 349.213C1079.55 349.213 1075.37 350.187 1072.19 352.148C1068.99 354.109 1066.42 356.535 1064.46 359.47C1062.49 362.652 1061.15 366.24 1060.42 370.279C1059.69 374.303 1059.31 378.516 1059.31 382.918C1059.31 388.047 1059.5 392.318 1059.86 395.732C1060.23 399.161 1061.15 402.197 1062.62 404.885C1064.1 407.573 1066.25 409.897 1069.06 411.844C1071.88 413.805 1075.75 415.752 1080.66 417.699L1109.38 429.045C1117.72 432.227 1124.48 435.946 1129.62 440.217C1134.78 444.489 1138.82 449.443 1141.77 455.051C1144.48 460.906 1146.32 467.559 1147.29 475.012C1148.27 482.465 1148.77 490.95 1148.77 500.466C1148.77 511.449 1147.66 521.648 1145.45 531.047C1143.25 540.447 1139.68 548.438 1134.78 555.033C1129.62 561.876 1122.87 567.252 1114.53 571.145C1106.18 575.053 1096 577 1083.98 577C1074.89 577 1066.42 575.402 1058.58 572.235C1050.72 569.068 1043.97 564.666 1038.33 559.058C1032.68 553.45 1028.21 546.912 1024.9 539.459C1021.58 532.021 1019.93 523.9 1019.93 515.11V501.192H1057.48V512.916C1057.48 519.759 1059.51 525.919 1063.56 531.411C1067.6 536.902 1074.42 539.648 1083.99 539.648C1090.37 539.648 1095.34 538.733 1098.9 536.902C1102.45 535.072 1105.21 532.457 1107.19 529.028C1109.14 525.614 1110.31 521.517 1110.69 516.766C1111.06 512.001 1111.25 506.698 1111.25 500.829C1111.25 494.001 1111 488.378 1110.52 483.976C1110.02 479.589 1109.04 476.044 1107.57 473.356C1105.84 470.668 1103.58 468.475 1100.76 466.76C1097.94 465.061 1094.19 463.23 1089.53 461.269L1062.65 450.285C1046.45 443.69 1035.59 434.973 1030.07 424.106C1024.55 413.239 1021.78 399.626 1021.78 383.267C1021.78 373.504 1023.13 364.221 1025.83 355.431C1028.53 346.642 1032.58 339.073 1037.98 332.724C1043.14 326.375 1049.7 321.319 1057.69 317.527C1065.66 313.75 1075.17 311.847 1086.23 311.847C1095.55 311.847 1104.09 313.561 1111.82 316.975C1119.54 320.389 1126.23 324.908 1131.88 330.53C1143.18 342.254 1148.83 355.678 1148.83 370.816V389.122L1148.77 389.136Z" fill="white"/>
</svg>
