<svg width="797" height="214" viewBox="0 0 797 214" fill="none" xmlns="http://www.w3.org/2000/svg">
<path d="M751.938 212.1V181.63L755.128 190.43L721.688 135.1H736.978L763.818 179.65H755.238L782.298 135.1H796.378L762.938 190.43L766.238 181.63V212.1H751.938Z" fill="black"/>
<path d="M683.647 212.1V147.2H658.127V135.1H723.467V147.2H697.947V212.1H683.647Z" fill="black"/>
<path d="M632.901 212.1V135.1H647.201V212.1H632.901Z" fill="black"/>
<path d="M567.051 212.1V135.1H581.351V200H621.611V212.1H567.051Z" fill="black"/>
<path d="M473.769 212.1L508.419 135.1H522.499L557.259 212.1H542.299L512.489 142.69H518.209L488.509 212.1H473.769ZM489.719 194.28L493.569 183.06H535.149L538.999 194.28H489.719Z" fill="black"/>
<path d="M395.605 212.1V135.1H407.375L455.665 194.39H449.835V135.1H464.025V212.1H452.255L403.965 152.81H409.796V212.1H395.605Z" fill="black"/>
<path d="M339.088 213.2C333.074 213.2 327.538 212.21 322.478 210.23C317.418 208.25 313.018 205.5 309.278 201.98C305.538 198.387 302.641 194.207 300.588 189.44C298.534 184.6 297.508 179.32 297.508 173.6C297.508 167.88 298.534 162.637 300.588 157.87C302.641 153.03 305.538 148.85 309.278 145.33C313.018 141.737 317.418 138.95 322.478 136.97C327.538 134.99 333.038 134 338.978 134C344.991 134 350.491 134.99 355.478 136.97C360.538 138.95 364.938 141.737 368.678 145.33C372.418 148.85 375.314 153.03 377.368 157.87C379.421 162.637 380.448 167.88 380.448 173.6C380.448 179.32 379.421 184.6 377.368 189.44C375.314 194.28 372.418 198.46 368.678 201.98C364.938 205.5 360.538 208.25 355.478 210.23C350.491 212.21 345.028 213.2 339.088 213.2ZM338.978 200.66C342.864 200.66 346.458 200 349.758 198.68C353.058 197.36 355.918 195.49 358.338 193.07C360.758 190.577 362.628 187.717 363.948 184.49C365.341 181.19 366.038 177.56 366.038 173.6C366.038 169.64 365.341 166.047 363.948 162.82C362.628 159.52 360.758 156.66 358.338 154.24C355.918 151.747 353.058 149.84 349.758 148.52C346.458 147.2 342.864 146.54 338.978 146.54C335.091 146.54 331.498 147.2 328.198 148.52C324.971 149.84 322.111 151.747 319.618 154.24C317.198 156.66 315.291 159.52 313.898 162.82C312.578 166.047 311.918 169.64 311.918 173.6C311.918 177.487 312.578 181.08 313.898 184.38C315.291 187.68 317.198 190.577 319.618 193.07C322.038 195.49 324.898 197.36 328.198 198.68C331.498 200 335.091 200.66 338.978 200.66Z" fill="black"/>
<path d="M257.698 213.2C251.685 213.2 245.928 212.357 240.428 210.67C234.928 208.91 230.565 206.673 227.338 203.96L232.288 192.85C235.368 195.27 239.182 197.287 243.728 198.9C248.275 200.513 252.932 201.32 257.698 201.32C261.732 201.32 264.995 200.88 267.488 200C269.982 199.12 271.815 197.947 272.988 196.48C274.162 194.94 274.748 193.217 274.748 191.31C274.748 188.963 273.905 187.093 272.218 185.7C270.532 184.233 268.332 183.097 265.618 182.29C262.978 181.41 260.008 180.603 256.708 179.87C253.482 179.137 250.218 178.293 246.918 177.34C243.692 176.313 240.722 175.03 238.008 173.49C235.368 171.877 233.205 169.75 231.518 167.11C229.832 164.47 228.988 161.097 228.988 156.99C228.988 152.81 230.088 148.997 232.288 145.55C234.562 142.03 237.972 139.243 242.518 137.19C247.138 135.063 252.968 134 260.008 134C264.628 134 269.212 134.587 273.758 135.76C278.305 136.933 282.265 138.62 285.638 140.82L281.128 151.93C277.682 149.877 274.125 148.373 270.458 147.42C266.792 146.393 263.272 145.88 259.898 145.88C255.938 145.88 252.712 146.357 250.218 147.31C247.798 148.263 246.002 149.51 244.828 151.05C243.728 152.59 243.178 154.35 243.178 156.33C243.178 158.677 243.985 160.583 245.598 162.05C247.285 163.443 249.448 164.543 252.088 165.35C254.802 166.157 257.808 166.963 261.108 167.77C264.408 168.503 267.672 169.347 270.898 170.3C274.198 171.253 277.168 172.5 279.808 174.04C282.522 175.58 284.685 177.67 286.298 180.31C287.985 182.95 288.828 186.287 288.828 190.32C288.828 194.427 287.692 198.24 285.418 201.76C283.218 205.207 279.808 207.993 275.188 210.12C270.568 212.173 264.738 213.2 257.698 213.2Z" fill="black"/>
<path d="M153.369 212.1V135.1H185.049C191.869 135.1 197.699 136.2 202.539 138.4C207.453 140.6 211.229 143.753 213.869 147.86C216.509 151.966 217.829 156.843 217.829 162.49C217.829 168.136 216.509 173.013 213.869 177.12C211.229 181.153 207.453 184.27 202.539 186.47C197.699 188.596 191.869 189.66 185.049 189.66H161.289L167.669 183.17V212.1H153.369ZM203.749 212.1L184.279 184.16H199.569L219.149 212.1H203.749ZM167.669 184.71L161.289 177.89H184.389C190.696 177.89 195.426 176.533 198.579 173.82C201.806 171.106 203.419 167.33 203.419 162.49C203.419 157.576 201.806 153.8 198.579 151.16C195.426 148.52 190.696 147.2 184.389 147.2H161.289L167.669 140.16V184.71Z" fill="black"/>
<path d="M92.878 167.11H131.158V178.88H92.878V167.11ZM93.978 200.11H137.428V212.1H79.678V135.1H135.888V147.09H93.978V200.11Z" fill="black"/>
<path d="M0.937744 212.1V135.1H32.6177C39.4377 135.1 45.2677 136.2 50.1077 138.4C55.0211 140.6 58.7978 143.753 61.4378 147.86C64.0777 151.966 65.3977 156.843 65.3977 162.49C65.3977 168.136 64.0777 173.013 61.4378 177.12C58.7978 181.226 55.0211 184.38 50.1077 186.58C45.2677 188.78 39.4377 189.88 32.6177 189.88H8.85774L15.2377 183.17V212.1H0.937744ZM15.2377 184.71L8.85774 177.78H31.9577C38.2644 177.78 42.9944 176.46 46.1477 173.82C49.3744 171.106 50.9877 167.33 50.9877 162.49C50.9877 157.576 49.3744 153.8 46.1477 151.16C42.9944 148.52 38.2644 147.2 31.9577 147.2H8.85774L15.2377 140.16V184.71Z" fill="black"/>
<path d="M645.254 78.0996V1.09961H676.934C683.754 1.09961 689.584 2.19961 694.424 4.39961C699.338 6.59961 703.114 9.75294 705.754 13.8596C708.394 17.9663 709.714 22.8429 709.714 28.4896C709.714 34.1363 708.394 39.0129 705.754 43.1196C703.114 47.1529 699.338 50.2696 694.424 52.4696C689.584 54.5963 683.754 55.6596 676.934 55.6596H653.174L659.554 49.1696V78.0996H645.254ZM695.634 78.0996L676.164 50.1596H691.454L711.034 78.0996H695.634ZM659.554 50.7096L653.174 43.8896H676.274C682.581 43.8896 687.311 42.533 690.464 39.8196C693.691 37.1063 695.304 33.3296 695.304 28.4896C695.304 23.5763 693.691 19.7996 690.464 17.1596C687.311 14.5196 682.581 13.1996 676.274 13.1996H653.174L659.554 6.15961V50.7096Z" fill="black"/>
<path d="M591.567 79.1996C581.007 79.1996 572.721 76.2296 566.707 70.2896C560.767 64.3496 557.797 55.7696 557.797 44.5496V1.09961H572.097V43.9996C572.097 51.9196 573.784 57.6763 577.157 61.2696C580.604 64.8629 585.444 66.6596 591.677 66.6596C597.911 66.6596 602.714 64.8629 606.087 61.2696C609.461 57.6763 611.147 51.9196 611.147 43.9996V1.09961H625.227V44.5496C625.227 55.7696 622.221 64.3496 616.207 70.2896C610.267 76.2296 602.054 79.1996 591.567 79.1996Z" fill="black"/>
<path d="M501.94 79.2C495.926 79.2 490.39 78.21 485.33 76.23C480.27 74.25 475.87 71.5 472.13 67.98C468.39 64.3867 465.493 60.2067 463.44 55.44C461.386 50.6 460.36 45.32 460.36 39.6C460.36 33.88 461.386 28.6367 463.44 23.87C465.493 19.03 468.39 14.85 472.13 11.33C475.87 7.73667 480.27 4.95 485.33 2.97C490.39 0.99 495.89 0 501.83 0C507.843 0 513.343 0.99 518.33 2.97C523.39 4.95 527.79 7.73667 531.53 11.33C535.27 14.85 538.167 19.03 540.22 23.87C542.273 28.6367 543.3 33.88 543.3 39.6C543.3 45.32 542.273 50.6 540.22 55.44C538.167 60.28 535.27 64.46 531.53 67.98C527.79 71.5 523.39 74.25 518.33 76.23C513.343 78.21 507.88 79.2 501.94 79.2ZM501.83 66.66C505.716 66.66 509.31 66 512.61 64.68C515.91 63.36 518.77 61.49 521.19 59.07C523.61 56.5767 525.48 53.7167 526.8 50.49C528.193 47.19 528.89 43.56 528.89 39.6C528.89 35.64 528.193 32.0467 526.8 28.82C525.48 25.52 523.61 22.66 521.19 20.24C518.77 17.7467 515.91 15.84 512.61 14.52C509.31 13.2 505.716 12.54 501.83 12.54C497.943 12.54 494.35 13.2 491.05 14.52C487.823 15.84 484.963 17.7467 482.47 20.24C480.05 22.66 478.143 25.52 476.75 28.82C475.43 32.0467 474.77 35.64 474.77 39.6C474.77 43.4867 475.43 47.08 476.75 50.38C478.143 53.68 480.05 56.5767 482.47 59.07C484.89 61.49 487.75 63.36 491.05 64.68C494.35 66 497.943 66.66 501.83 66.66Z" fill="black"/>
<path d="M415.385 78.0996V47.6296L418.575 56.4296L385.135 1.09961H400.425L427.265 45.6496H418.685L445.745 1.09961H459.825L426.385 56.4296L429.685 47.6296V78.0996H415.385Z" fill="black"/>
<path d="M275.186 78.0996V1.09961H308.846C317.206 1.09961 324.539 2.71294 330.846 5.93961C337.152 9.16628 342.066 13.6396 345.586 19.3596C349.106 25.0796 350.866 31.8263 350.866 39.5996C350.866 47.2996 349.106 54.0463 345.586 59.8396C342.066 65.5596 337.152 70.0329 330.846 73.2596C324.539 76.4863 317.206 78.0996 308.846 78.0996H275.186ZM289.486 65.9996H308.186C313.979 65.9996 318.966 64.8996 323.146 62.6996C327.399 60.4996 330.662 57.4196 332.936 53.4596C335.282 49.4996 336.456 44.8796 336.456 39.5996C336.456 34.2463 335.282 29.6263 332.936 25.7396C330.662 21.7796 327.399 18.6996 323.146 16.4996C318.966 14.2996 313.979 13.1996 308.186 13.1996H289.486V65.9996Z" fill="black"/>
<path d="M186.133 78.0996V1.09961H197.903L246.193 60.3896H240.363V1.09961H254.553V78.0996H242.783L194.493 18.8096H200.323V78.0996H186.133Z" fill="black"/>
<path d="M151.006 78.0996V1.09961H165.306V78.0996H151.006Z" fill="black"/>
<path d="M94.0571 36.5196H132.447V48.6196H94.0571V36.5196ZM95.267 78.0996H80.967V1.09961H137.177V13.0896H95.267V78.0996Z" fill="black"/>
</svg>
