<svg width="405" height="22" viewBox="0 0 405 22" fill="none" xmlns="http://www.w3.org/2000/svg">
<g clip-path="url(#clip0_2145_866)">
<path d="M0.798828 11C0.798828 9.48423 1.08885 8.0592 1.67427 6.73023C2.25968 5.40126 3.05456 4.23775 4.05352 3.23969C5.05786 2.24697 6.22332 1.45706 7.56601 0.875307C8.90334 0.29355 10.3373 0.00534058 11.868 0.00534058C13.3987 0.00534058 14.8273 0.29355 16.1646 0.875307C17.502 1.45706 18.6728 2.24697 19.6771 3.23969C20.6815 4.23775 21.471 5.39593 22.0564 6.73023C22.6418 8.0592 22.9318 9.48423 22.9318 11C22.9318 12.5158 22.6418 13.9408 22.0564 15.2751C21.471 16.6041 20.6761 17.7676 19.6771 18.7656C18.6728 19.7637 17.5073 20.5483 16.1646 21.13C14.8273 21.7118 13.3933 22 11.868 22C10.3427 22 8.90871 21.7065 7.56601 21.13C6.22869 20.5483 5.05786 19.7584 4.05352 18.7656C3.04919 17.7729 2.25968 16.6094 1.67427 15.2751C1.08885 13.9461 0.798828 12.5211 0.798828 11ZM2.76453 11C2.76453 12.2436 3.00085 13.4124 3.47885 14.5172C3.95685 15.622 4.60671 16.5827 5.42844 17.3993C6.25017 18.2159 7.21691 18.8617 8.32866 19.3367C9.44042 19.8117 10.622 20.0466 11.868 20.0466C13.114 20.0466 14.2956 19.8117 15.4074 19.3367C16.5191 18.8617 17.4858 18.2159 18.3076 17.3993C19.1293 16.5827 19.7792 15.622 20.2572 14.5172C20.7352 13.4124 20.9715 12.2382 20.9715 11C20.9715 9.76177 20.7352 8.58758 20.2572 7.48278C19.7792 6.37797 19.1293 5.41728 18.3076 4.60068C17.4858 3.78409 16.5191 3.13829 15.4074 2.66327C14.2956 2.18826 13.114 1.95342 11.868 1.95342C10.622 1.95342 9.43505 2.18826 8.32866 2.66327C7.21691 3.13829 6.25017 3.78409 5.42844 4.60068C4.60671 5.41728 3.95685 6.37797 3.47885 7.48278C3.00085 8.58758 2.76453 9.76177 2.76453 11ZM17.4912 13.0121C17.1743 14.4318 16.5298 15.558 15.5577 16.3959C14.5856 17.2339 13.3879 17.6502 11.9593 17.6502C10.9281 17.6502 9.99898 17.4901 9.17725 17.1645C8.35552 16.8389 7.65732 16.3799 7.09338 15.7875C6.52945 15.1951 6.09442 14.4852 5.79903 13.6579C5.50363 12.8307 5.35325 11.9127 5.35325 10.9093C5.35325 9.90587 5.49826 8.98787 5.78291 8.1606C6.07294 7.33334 6.48649 6.62349 7.03431 6.03106C7.57676 5.43862 8.25884 4.97962 9.06983 4.65405C9.88082 4.32848 10.8153 4.16837 11.868 4.16837C13.3557 4.16837 14.6071 4.54731 15.6168 5.30519C16.6265 6.06308 17.2549 7.19457 17.4912 8.68899H15.171C14.9723 7.95779 14.6232 7.37603 14.1184 6.94372C13.6135 6.5114 12.867 6.29258 11.8788 6.29258C10.4555 6.29258 9.39745 6.69821 8.70999 7.50413C8.01716 8.31005 7.67343 9.42552 7.67343 10.8452C7.67343 11.4964 7.76473 12.0995 7.95271 12.6652C8.14069 13.2256 8.4146 13.722 8.77981 14.1436C9.14502 14.5653 9.59617 14.9015 10.1279 15.147C10.6596 15.3925 11.2665 15.5153 11.9378 15.5153C12.8831 15.5153 13.6189 15.2911 14.1452 14.8375C14.6662 14.3838 15.0099 13.7754 15.1657 13.0015H17.4858L17.4912 13.0121Z" fill="white"/>
<path d="M27.2178 18.4508L35.666 10.114C35.9614 9.83649 36.2514 9.5376 36.5307 9.21203C36.81 8.88646 37.057 8.54488 37.2719 8.19262C37.4867 7.84037 37.6639 7.46143 37.7928 7.07181C37.9217 6.67686 37.9862 6.26589 37.9862 5.82824C37.9862 5.31587 37.8895 4.85153 37.7015 4.44056C37.5136 4.0296 37.2558 3.67734 36.9281 3.38913C36.6005 3.10626 36.2138 2.8821 35.7681 2.72198C35.3223 2.56186 34.8497 2.48714 34.3555 2.48714C33.3244 2.48714 32.4704 2.77535 31.7937 3.34643C31.117 3.91752 30.6927 4.70742 30.5154 5.71082L27.4219 5.44396C27.5615 4.51528 27.8354 3.7147 28.2382 3.03154C28.6464 2.35371 29.1513 1.78263 29.7582 1.32897C30.3651 0.875303 31.0579 0.539059 31.842 0.32557C32.6262 0.106744 33.4747 0 34.3878 0C35.3008 0 36.1601 0.122756 36.9604 0.368268C37.766 0.61378 38.4696 0.982047 39.0711 1.4624C39.678 1.94808 40.1506 2.54585 40.4997 3.26638C40.8488 3.9869 41.0207 4.83018 41.0207 5.79621C41.0207 6.48472 40.9186 7.13052 40.7092 7.73362C40.4997 8.33673 40.2258 8.90247 39.8928 9.4362C39.5545 9.96992 39.1678 10.4716 38.7327 10.9466C38.2977 11.4216 37.8412 11.8806 37.3632 12.3343L30.4295 18.9845H41.0207V21.4663H27.2124V18.4508H27.2178Z" fill="white"/>
<path d="M45.4893 11C45.4893 10.2314 45.5269 9.43085 45.6074 8.60358C45.688 7.77631 45.833 6.96506 46.0371 6.16448C46.2465 5.36389 46.5258 4.60067 46.8695 3.87481C47.2186 3.14361 47.6644 2.50848 48.2069 1.96942C48.7547 1.42503 49.3992 0.992714 50.1404 0.667144C50.8815 0.341574 51.7516 0.181458 52.7452 0.181458C53.7388 0.181458 54.6035 0.341574 55.35 0.667144C56.0965 0.992714 56.7357 1.42503 57.2835 1.96942C57.8313 2.51382 58.2771 3.14895 58.6208 3.87481C58.9646 4.60601 59.2438 5.36923 59.4533 6.16448C59.6627 6.96506 59.8024 7.77631 59.883 8.60358C59.9635 9.43085 60.0011 10.2314 60.0011 11C60.0011 12.1048 59.9044 13.2897 59.7057 14.5492C59.507 15.8088 59.1418 16.983 58.6047 18.0665C58.0676 19.1499 57.3318 20.0466 56.3866 20.7564C55.4413 21.4663 54.2275 21.8185 52.7398 21.8185C51.2521 21.8185 50.0383 21.4663 49.093 20.7564C48.1478 20.0466 47.412 19.1499 46.8749 18.0665C46.3378 16.983 45.9726 15.8088 45.7739 14.5492C45.5752 13.2897 45.4785 12.1048 45.4785 11H45.4893ZM48.3465 11C48.3465 11.6885 48.3895 12.5104 48.4808 13.4551C48.5721 14.3998 48.7654 15.3125 49.0608 16.1878C49.3562 17.0631 49.802 17.8103 50.3874 18.4187C50.9728 19.0325 51.7623 19.3367 52.7506 19.3367C53.7388 19.3367 54.5283 19.0325 55.1137 18.4187C55.6991 17.8103 56.1395 17.0631 56.4349 16.1878C56.7303 15.3125 56.9236 14.3998 57.015 13.4551C57.1063 12.5104 57.1492 11.6938 57.1492 11C57.1492 10.525 57.1331 9.99126 57.1063 9.38815C57.0794 8.78505 57.0042 8.17661 56.8968 7.55749C56.7894 6.93837 56.6336 6.33527 56.4349 5.75351C56.2362 5.17175 55.973 4.64871 55.6454 4.18437C55.3178 3.72003 54.915 3.35176 54.4423 3.07423C53.9643 2.79669 53.4004 2.65793 52.7452 2.65793C52.0899 2.65793 51.526 2.79669 51.048 3.07423C50.57 3.35176 50.1726 3.72003 49.845 4.18437C49.5173 4.64871 49.2542 5.17175 49.0555 5.75351C48.8567 6.33527 48.701 6.93837 48.5936 7.55749C48.4862 8.17661 48.4163 8.79039 48.3841 9.38815C48.3519 9.99126 48.3411 10.525 48.3411 11H48.3465Z" fill="white"/>
<path d="M64.4692 18.4508L72.9175 10.114C73.2129 9.83649 73.5029 9.5376 73.7822 9.21203C74.0615 8.88646 74.3085 8.54488 74.5233 8.19262C74.7382 7.84037 74.9154 7.46143 75.0443 7.07181C75.1732 6.67686 75.2377 6.26589 75.2377 5.82824C75.2377 5.31587 75.141 4.85153 74.953 4.44056C74.765 4.02426 74.5072 3.67734 74.1796 3.38913C73.852 3.10626 73.4653 2.8821 73.0195 2.72198C72.5737 2.56186 72.1011 2.48714 71.607 2.48714C70.5758 2.48714 69.7219 2.77535 69.0505 3.34643C68.3738 3.91752 67.9495 4.70742 67.7723 5.71082L64.6787 5.44396C64.8183 4.51528 65.0922 3.7147 65.4951 3.03154C65.9032 2.35371 66.4081 1.78263 67.015 1.32897C67.6219 0.875303 68.3147 0.539059 69.0988 0.32557C69.883 0.106744 70.7316 0 71.6446 0C72.5576 0 73.417 0.122756 74.2172 0.368268C75.0228 0.61378 75.7264 0.982047 76.3279 1.4624C76.9348 1.94808 77.4074 2.54585 77.7565 3.26638C78.1056 3.9869 78.2775 4.83018 78.2775 5.79621C78.2775 6.48472 78.1755 7.13052 77.966 7.73362C77.7565 8.33673 77.4826 8.90247 77.1497 9.4362C76.8113 9.96992 76.4246 10.4716 75.9896 10.9466C75.5545 11.4216 75.098 11.8806 74.62 12.3343L67.6863 18.9845H78.2775V21.4663H64.4692V18.4508Z" fill="white"/>
<path d="M86.1297 16.3532C86.4627 17.3566 86.9138 18.1092 87.4778 18.6002C88.0417 19.0912 88.8742 19.3367 89.9806 19.3367C90.5337 19.3367 91.0493 19.246 91.5381 19.0539C92.0215 18.8671 92.4511 18.6109 92.8271 18.2853C93.203 17.9597 93.4984 17.5648 93.7186 17.1004C93.9334 16.6361 94.0462 16.1184 94.0462 15.5473C94.0462 14.6827 93.8636 13.9835 93.493 13.4605C93.1278 12.9374 92.6552 12.5425 92.0805 12.2756C91.5059 12.0087 90.8721 11.8379 90.1793 11.7579C89.4864 11.6778 88.799 11.6405 88.1276 11.6405V9.15866C89.2179 9.15866 90.1095 9.08394 90.8077 8.93449C91.5059 8.78505 92.0483 8.5769 92.4457 8.29937C92.8432 8.02183 93.1225 7.68025 93.2782 7.26395C93.4393 6.84764 93.5145 6.38864 93.5145 5.87627C93.5145 4.75546 93.1762 3.90684 92.5048 3.33576C91.8281 2.76467 90.9849 2.47646 89.9752 2.47646C89.2018 2.47646 88.5036 2.70063 87.8752 3.14362C87.2468 3.58661 86.7796 4.1737 86.4627 4.9049L83.5464 3.92819C84.0996 2.58855 84.9481 1.59582 86.0921 0.955358C87.2307 0.314892 88.509 -0.00534058 89.9161 -0.00534058C90.7701 -0.00534058 91.5864 0.106741 92.3706 0.336241C93.1547 0.565741 93.8422 0.91266 94.4383 1.38767C95.0345 1.86268 95.5017 2.45512 95.8508 3.17564C96.1999 3.89616 96.3718 4.73944 96.3718 5.70548C96.3718 6.81028 96.0388 7.79767 95.3728 8.6623C94.7068 9.53226 93.8421 10.1194 92.768 10.4343V10.493C93.4232 10.6104 94.0086 10.8292 94.5242 11.1441C95.0398 11.459 95.4749 11.854 95.8347 12.329C96.1892 12.804 96.4577 13.3324 96.6403 13.9088C96.8176 14.4905 96.9089 15.1043 96.9089 15.7555C96.9089 16.7589 96.7155 17.6448 96.3288 18.4027C95.9421 19.1606 95.4265 19.7904 94.782 20.2974C94.1375 20.7991 93.391 21.1781 92.5478 21.4343C91.7046 21.6904 90.8184 21.8185 89.8839 21.8185C88.278 21.8185 86.8655 21.4556 85.6463 20.7244C84.4272 19.9932 83.5786 18.8404 83.1006 17.2659L86.1351 16.3479L86.1297 16.3532Z" fill="white"/>
<path d="M114.042 17.0898C114.557 17.8583 115.218 18.4241 116.018 18.7923C116.824 19.1553 117.651 19.3367 118.505 19.3367C118.983 19.3367 119.466 19.262 119.96 19.1126C120.455 18.9631 120.906 18.7443 121.314 18.4454C121.722 18.1519 122.055 17.7836 122.313 17.3513C122.571 16.919 122.7 16.4173 122.7 15.8408C122.7 15.0349 122.442 14.4158 121.926 13.9942C121.411 13.5725 120.771 13.2149 120.009 12.9321C119.246 12.6439 118.414 12.3717 117.511 12.1048C116.609 11.8379 115.777 11.4697 115.014 10.9947C114.251 10.5196 113.612 9.88452 113.097 9.08927C112.581 8.28869 112.323 7.21057 112.323 5.84958C112.323 5.24114 112.457 4.59 112.726 3.89616C112.995 3.20766 113.413 2.57787 113.988 2.00145C114.563 1.43037 115.304 0.950018 116.206 0.565738C117.109 0.181459 118.193 -0.0106812 119.466 -0.0106812C120.616 -0.0106812 121.717 0.149435 122.769 0.464331C123.822 0.779227 124.74 1.41969 125.535 2.38573L123.215 4.48325C122.855 3.93352 122.35 3.49053 121.695 3.15429C121.04 2.81804 120.299 2.65259 119.466 2.65259C118.634 2.65259 118.011 2.754 117.49 2.96215C116.964 3.1703 116.545 3.43716 116.222 3.76273C115.906 4.0883 115.68 4.44056 115.551 4.81416C115.422 5.18777 115.358 5.53469 115.358 5.84958C115.358 6.73556 115.615 7.41872 116.131 7.8884C116.647 8.36341 117.286 8.74769 118.048 9.04124C118.811 9.33478 119.644 9.60164 120.546 9.84182C121.448 10.0767 122.281 10.4076 123.043 10.8345C123.806 11.2562 124.445 11.8326 124.961 12.5478C125.476 13.2683 125.734 14.2557 125.734 15.5206C125.734 16.524 125.541 17.4313 125.154 18.2426C124.767 19.0539 124.246 19.7317 123.591 20.2814C122.936 20.8311 122.162 21.2581 121.271 21.5517C120.379 21.8452 119.429 21.9947 118.414 21.9947C117.066 21.9947 115.787 21.7598 114.574 21.2848C113.365 20.8098 112.404 20.0839 111.689 19.0965L114.042 17.0844V17.0898Z" fill="white"/>
<path d="M132.039 0.533722H139.445C140.793 0.533722 141.905 0.715187 142.775 1.07812C143.645 1.44105 144.338 1.90539 144.843 2.46579C145.348 3.0262 145.702 3.65599 145.901 4.36051C146.1 5.05968 146.196 5.73751 146.196 6.38331C146.196 7.02911 146.094 7.70694 145.901 8.40611C145.702 9.10529 145.348 9.73508 144.843 10.3008C144.338 10.8666 143.645 11.3256 142.775 11.6885C141.9 12.0514 140.793 12.2329 139.445 12.2329H134.891V21.4556H132.034V0.533722H132.039ZM134.896 9.75643H138.645C139.198 9.75643 139.752 9.71373 140.294 9.623C140.842 9.53227 141.325 9.37215 141.749 9.13731C142.174 8.90248 142.517 8.56089 142.775 8.1179C143.033 7.67492 143.162 7.0985 143.162 6.38865C143.162 5.6788 143.033 5.10238 142.775 4.65939C142.517 4.2164 142.174 3.87482 141.749 3.63998C141.325 3.40514 140.836 3.23969 140.294 3.15429C139.746 3.06356 139.198 3.02086 138.645 3.02086H134.896V9.76177V9.75643Z" fill="white"/>
<path d="M156.17 0.533722H158.759L167.777 21.4663H164.447L162.336 16.2945H152.309L150.225 21.4663H146.89L156.17 0.533722ZM161.289 13.8074L157.363 4.20039H157.304L153.318 13.8074H161.294H161.289Z" fill="white"/>
<path d="M172.594 0.533722H180.001C181.349 0.533722 182.46 0.715187 183.33 1.07812C184.2 1.44105 184.893 1.90539 185.398 2.46579C185.903 3.0262 186.258 3.65599 186.456 4.36051C186.655 5.05968 186.752 5.73751 186.752 6.38331C186.752 7.02911 186.633 7.7016 186.392 8.32072C186.155 8.93984 185.812 9.50558 185.366 10.0073C184.92 10.509 184.372 10.936 183.728 11.2775C183.083 11.6245 182.364 11.8326 181.569 11.9127L187.546 21.4609H183.975L178.62 12.2382H175.435V21.4609H172.578V0.533722H172.594ZM175.451 9.75643H179.2C179.753 9.75643 180.307 9.71373 180.849 9.623C181.397 9.53227 181.88 9.37215 182.305 9.13731C182.729 8.90248 183.073 8.56089 183.33 8.1179C183.588 7.67492 183.717 7.0985 183.717 6.38865C183.717 5.6788 183.588 5.10238 183.33 4.65939C183.073 4.2164 182.729 3.87482 182.305 3.63998C181.88 3.40514 181.392 3.23969 180.849 3.15429C180.301 3.06356 179.753 3.02086 179.2 3.02086H175.451V9.76177V9.75643Z" fill="white"/>
<path d="M192.858 0.533722H195.715V9.5803H195.951L205.264 0.533722H209.25L199.072 10.2048L209.932 21.4716H205.764L195.946 11.0053H195.71V21.4716H192.853V0.533722H192.858Z" fill="white"/>
<path d="M214.218 0.533722H217.075V18.8083H226.742V21.4716H214.218V0.533722Z" fill="white"/>
<path d="M233.413 12.5371L225.437 0.533722H229.095L234.836 9.72974L240.754 0.533722H244.235L236.259 12.5371V21.4663H233.402V12.5371H233.413Z" fill="white"/>
<path d="M259.09 0.533722H261.948V21.4663H259.09V0.533722Z" fill="white"/>
<path d="M268.967 0.533722H276.315C277.802 0.533722 279.107 0.699176 280.23 1.03542C281.352 1.37166 282.324 1.81999 283.146 2.3804C283.968 2.94081 284.655 3.58661 285.198 4.31781C285.746 5.04901 286.175 5.79622 286.492 6.56477C286.809 7.33333 287.04 8.10189 287.174 8.87045C287.314 9.63901 287.384 10.3489 287.384 11C287.384 12.3396 287.137 13.6366 286.637 14.8908C286.143 16.1451 285.407 17.2552 284.435 18.2319C283.463 19.2086 282.26 19.9932 280.821 20.5803C279.381 21.1727 277.722 21.4663 275.837 21.4663H268.962V0.533722H268.967ZM271.819 18.803H275.418C276.626 18.803 277.775 18.6429 278.855 18.3173C279.934 17.9918 280.885 17.5061 281.696 16.8549C282.507 16.2038 283.152 15.3925 283.63 14.4158C284.108 13.4391 284.344 12.3023 284.344 11C284.344 10.3328 284.236 9.54828 284.016 8.65162C283.796 7.75497 283.388 6.90102 282.781 6.0951C282.174 5.28918 281.336 4.60068 280.267 4.04027C279.193 3.47986 277.808 3.19699 276.1 3.19699H271.814V18.8083L271.819 18.803Z" fill="white"/>
<path d="M293.571 0.533722H307.17V3.19699H296.428V9.4362H306.428V12.0995H296.428V18.8137H307.707V21.477H293.576V0.533722H293.571Z" fill="white"/>
<path d="M313.835 0.533722H317.584L329.19 17.7409H329.249V0.533722H332.106V21.4663H328.476L316.751 4.2591H316.692V21.4663H313.835V0.533722Z" fill="white"/>
<path d="M344.003 3.19165H337.219V0.533722H353.643V3.19699H346.86V21.4716H344.003V3.19165Z" fill="white"/>
<path d="M358.761 0.533722H361.618V21.4663H358.761V0.533722Z" fill="white"/>
<path d="M373.52 3.19165H366.737V0.533722H383.161V3.19699H376.377V21.4716H373.52V3.19165Z" fill="white"/>
<path d="M393.247 12.5371L385.271 0.533722H388.929L394.67 9.72974L400.589 0.533722H404.069L396.094 12.5371V21.4663H393.236V12.5371H393.247Z" fill="white"/>
</g>
<defs>
<clipPath id="clip0_2145_866">
<rect width="403.276" height="22" fill="white" transform="translate(0.798828)"/>
</clipPath>
</defs>
</svg>
