<svg width="1516" height="45" viewBox="0 0 1516 45" fill="none" xmlns="http://www.w3.org/2000/svg">
<path d="M9.17408 21.6347C7.25675 20.0174 3.32176 17.7686 0.245117 16.395L2.49687 13.0052C5.51778 14.2016 9.55309 16.2953 11.5707 17.7686L9.17408 21.6347ZM13.2986 27.7828C11.0914 32.8341 8.21542 38.5613 5.71843 43.0366L1.78344 40.3669C4.09093 36.7002 7.34593 30.5965 9.84292 25.1131L13.2986 27.7828ZM11.7602 9.09484C9.88751 7.42212 5.99711 5.08475 2.93161 3.61143L5.28368 0.321378C8.30459 1.60638 12.2842 3.79974 14.2572 5.42815L11.7602 9.09484ZM24.9029 19.397C23.2196 29.0788 19.2401 36.4676 13.8225 40.5663C13.1982 39.6136 11.9052 38.1292 10.9911 37.376C14.8815 34.6066 18.2368 29.0345 19.9201 22.7424H12.7746V18.6437H21.3692L22.1384 18.4997L24.9252 19.4081L24.9029 19.397ZM44.1988 17.1039C41.2671 19.962 37.9117 23.2077 35.0803 25.5451C37.6219 30.2641 40.9327 34.1302 45.0126 36.4676C43.9536 37.3206 42.5156 39.0376 41.7464 40.2783C37.0423 37.0325 33.542 31.7485 30.9447 25.4454V38.6056C30.9447 40.9873 30.4654 42.3276 28.927 42.9923C27.3441 43.7123 24.9475 43.801 21.2466 43.7566C21.1017 42.5603 20.4774 40.5663 19.8532 39.4696C22.3947 39.5693 24.9363 39.5693 25.7055 39.5139C26.4301 39.4696 26.7087 39.2702 26.7087 38.5613V13.9579H16.9214V9.71518H30.9336V14.5782C31.6024 17.1483 32.4161 19.685 33.4305 22.0667C35.8718 19.6296 38.5694 16.6276 40.2415 14.2459L44.1765 17.1039H44.1988ZM34.5564 8.95083C31.346 7.2338 24.8583 4.89643 19.9201 3.61143L21.882 0.22168C26.6753 1.31836 33.2522 3.46742 36.6632 5.18444L34.5564 8.95083Z" fill="white"/>
<path d="M67.7975 13.9578V43.7565H63.6284V36.5561C58.3 37.3647 53.0274 38.1734 48.8471 38.7494L48.2229 34.4624L51.634 34.0304V13.9578H48.4681V10.0474H57.542V5.76035H49.9619V1.89427H69.8709V5.76035H61.8114V10.0474H71.0191V13.9578H67.8087H67.7975ZM63.6284 13.9578H55.7585V17.7242H63.6284V13.9578ZM63.6284 21.4462H55.7585V25.3123H63.6284V21.4462ZM55.7585 33.5097C58.2554 33.2217 60.9419 32.8451 63.6284 32.4574V28.979H55.7585V33.5097ZM89.4344 12.8611C88.2862 20.4382 86.5026 26.6859 83.6266 31.7484C86.0233 35.3265 89.0999 38.1845 92.9346 40.0012C91.9314 40.8542 90.4822 42.6266 89.8691 43.8119C86.2239 41.8623 83.2476 39.1372 80.851 35.8028C78.2091 39.0929 74.8983 41.7626 70.6735 43.9559C70.2388 42.9589 68.9457 40.8542 68.0873 39.9458C72.5017 37.8965 75.8124 35.1825 78.354 31.6487C76.5816 28.2146 75.1881 24.3043 74.0846 20.0172C73.3154 21.4462 72.5462 22.7312 71.6879 23.8833C70.9633 23.0303 69.1017 21.4462 68.0427 20.693C71.8328 15.8742 74.2295 8.1088 75.5226 0L80.0818 0.764354C79.6025 3.47837 79.0228 6.20346 78.354 8.77346H92.511V12.8722H89.4455L89.4344 12.8611ZM76.8157 13.6254C77.7743 18.5328 79.1231 23.1189 80.9847 27.118C82.8575 23.1079 84.0502 18.3888 84.8194 12.8611H77.0943L76.8045 13.6254H76.8157Z" fill="white"/>
<path d="M1436.36 37.3647C1439.14 38.4171 1442.64 38.7051 1447.01 38.7051C1449.89 38.7494 1463.71 38.7494 1467.26 38.6054C1466.53 39.6578 1465.72 41.6517 1465.43 42.9921H1447.05C1437.45 42.9921 1431.7 41.6074 1428.1 35.6477C1427.62 38.982 1426.8 41.8511 1425.6 44.1774C1424.88 43.6568 1423.01 42.6044 1422 42.1724C1424.64 37.4533 1425.02 29.9649 1425.12 21.712L1429.1 22.0001C1429.06 24.2931 1428.96 26.4865 1428.86 28.6245C1429.71 31.3385 1430.82 33.3878 1432.36 34.8279V18.7543H1423.29V14.7996H1431.64V9.60423H1424.25V5.73815H1431.64V0.420898H1435.77V5.7603H1442.91V9.62638H1435.77V14.8218H1443.83V16.4945C1447.57 14.2568 1449.59 10.9114 1450.35 6.10371H1444.39V2.32625H1465.26C1465.26 2.32625 1465.26 3.42293 1465.22 3.94358C1464.84 12.2407 1464.35 15.5751 1463.3 16.8157C1462.49 17.7241 1461.62 18.0564 1460.32 18.2004C1459.22 18.3001 1457.26 18.3445 1455.14 18.2448C1455.04 17.1038 1454.62 15.5307 1453.99 14.4784C1455.82 14.6667 1457.55 14.6667 1458.22 14.6667C1458.89 14.6667 1459.32 14.567 1459.66 14.1904C1460.24 13.5257 1460.57 11.421 1460.86 6.08155H1454.57C1453.57 12.6616 1450.78 16.9044 1446.03 19.8178C1445.55 19.3414 1444.64 18.6214 1443.83 18.001V18.7654H1436.34V24.8249H1443.29V28.6909H1436.34V37.3647H1436.36ZM1445.81 20.5378H1464.24V35.2267H1445.81V20.5378ZM1449.94 31.6487H1459.77V24.1602H1449.94V31.6487Z" fill="white"/>
<path d="M1484.48 36.7222C1487.5 37.9629 1491.25 38.2953 1496 38.2953C1498.73 38.2953 1511.82 38.2953 1515.19 38.1956C1514.47 39.2479 1513.65 41.2419 1513.42 42.5823H1496.01C1486.07 42.5823 1480.03 41.109 1476.14 34.5289C1475.56 37.7746 1474.51 40.9207 1472.88 43.679C1472.25 42.7263 1470.86 41.4413 1469.9 41.0093C1473.11 35.4262 1473.46 27.7494 1473.26 21.4573L1477 21.6456C1477.05 23.551 1477.05 25.5117 1476.96 27.5057C1477.87 30.2751 1478.97 32.3244 1480.46 33.8975V18.4996H1470.9V14.5892H1479.59V9.3938H1472.59V5.52772H1479.59V0.0110776H1483.71V5.5388H1490.58V9.40488H1483.71V14.6003H1491.44V18.5107H1484.48V24.4704H1490.62V28.3365H1484.48V36.7333V36.7222ZM1501.08 23.418C1501.31 24.5147 1501.8 26.0434 1502.18 26.8521C1494.27 31.5268 1492.97 32.3355 1492.25 33.1885C1491.96 32.1361 1491.1 30.2308 1490.42 29.3224C1491.28 28.8461 1492.58 27.7494 1492.58 25.844V7.92048H1501.51C1501.37 5.35048 1501.32 2.68078 1501.28 0H1505.36C1505.36 2.71401 1505.36 5.38371 1505.46 7.92048H1514.58V11.6426H1505.65C1505.94 15.7856 1506.32 19.6074 1506.85 22.7534C1508.29 20.0394 1509.54 17.1703 1510.35 14.1683L1513.85 15.1209C1512.46 19.8843 1510.44 24.3264 1507.96 28.0374C1508.77 30.7514 1509.68 32.3798 1510.6 32.3798C1511.32 32.3798 1511.7 30.3748 1511.85 26.0434C1512.66 26.8964 1513.91 27.7162 1514.87 28.0928C1514.24 34.4846 1513.14 36.3456 1510.16 36.2902C1508.1 36.2902 1506.52 34.6175 1505.23 31.6598C1503.16 34.0969 1500.86 36.0908 1498.27 37.6195C1497.65 36.7112 1496.44 35.2822 1495.58 34.5178C1498.7 32.8451 1501.48 30.3748 1503.83 27.3174C1502.77 23.0746 1502.15 17.6355 1501.73 11.6315H1496.64V25.9327L1501.1 23.407L1501.08 23.418ZM1510.63 7.73216C1509.72 6.25884 1507.85 3.72207 1506.36 1.96074L1509.38 0.387716C1510.92 2.10474 1512.84 4.48643 1513.8 5.91544L1510.63 7.73216Z" fill="white"/>
</svg>
